<svg width="512" height="512" viewBox="0 0 512 512" fill="none" xmlns="http://www.w3.org/2000/svg">
<g clip-path="url(#clip0_339_18)">
<path d="M229.195 53.6025C239.24 60.9021 249.583 63.9276 261.992 62.5312C272.478 60.6791 280.871 55.4997 289.352 49.2734C299.43 41.8915 310.444 36.6351 322.25 32.6249C323.293 32.2671 323.293 32.2671 324.357 31.902C354.648 22.1379 387.398 28.6322 415.226 42.4504C429.676 49.9019 442.86 59.1154 454.477 70.5077C456.137 72.1339 457.817 73.7379 459.496 75.3437C471.825 87.2592 481.321 100.245 490 115C490.358 115.605 490.717 116.211 491.086 116.834C510.853 150.675 518.979 195.639 509 234C495.129 286.259 463.141 327.133 425.426 364.704C423.733 366.392 422.046 368.084 420.359 369.777C415.282 374.857 410.193 379.854 404.726 384.519C401.967 386.886 399.338 389.388 396.687 391.875C391.814 396.413 386.797 400.693 381.602 404.863C379.05 406.959 376.617 409.14 374.187 411.375C368.629 416.433 362.736 421.01 356.797 425.606C354.504 427.385 352.224 429.18 349.946 430.976C347.606 432.82 345.262 434.658 342.917 436.496C341.59 437.537 340.264 438.579 338.938 439.621C327.456 448.642 315.831 457.442 304 466C303.361 466.463 302.723 466.927 302.064 467.404C284.195 480.306 266.066 486.804 243.872 483.703C228.029 480.813 215.961 472.594 203.719 462.754C199.02 458.98 194.186 455.418 189.312 451.875C181.626 446.26 174.165 440.419 166.772 434.425C164.414 432.528 162.027 430.669 159.639 428.811C153.877 424.325 148.236 419.728 142.685 414.984C139.312 412.101 135.895 409.283 132.437 406.5C127.36 402.37 122.554 397.992 117.758 393.543C115.597 391.55 113.417 389.603 111.187 387.687C100.026 377.95 89.4805 367.582 79 357.125C78.4578 356.585 77.9156 356.046 77.3569 355.49C71.352 349.507 65.481 343.473 60 337C59.1311 336.012 58.2623 335.025 57.3672 334.008C32.7513 305.534 14.3323 273.604 4.06248 237.312C3.87532 236.656 3.68817 235.999 3.49534 235.323C0.428726 223.827 -0.349341 212.405 -0.315697 200.572C-0.312546 198.266 -0.336066 195.962 -0.361351 193.656C-0.406152 183.141 0.807664 173.277 2.99998 163C3.1881 162.115 3.37622 161.231 3.57005 160.319C4.03874 158.278 4.55695 156.266 5.12498 154.25C5.32962 153.524 5.53425 152.797 5.74509 152.049C12.03 130.868 22.7001 111.524 36 93.9999C36.6484 93.1259 37.2968 92.2519 37.9648 91.3515C49.4219 76.6047 63.3067 63.1431 79 52.9999C79.6023 52.6066 80.2046 52.2133 80.8252 51.808C95.1406 42.5672 110.445 35.1791 127 30.9999C127.648 30.8362 128.297 30.6725 128.965 30.5038C165.172 21.8285 199.884 32.0858 229.195 53.6025Z" fill="white"/>
</g>
<defs>
<clipPath id="clip0_339_18">
<rect width="512" height="512" fill="white"/>
</clipPath>
</defs>
</svg>
