<svg width="512" height="512" viewBox="0 0 512 512" fill="none" xmlns="http://www.w3.org/2000/svg">
<g clip-path="url(#clip0_339_15)">
<path d="M191.228 -0.315651C194.352 -0.311041 197.475 -0.317884 200.599 -0.336158C228.907 -0.499795 257.258 0.586615 285.197 5.51516C287.326 5.88843 289.459 6.23203 291.594 6.57424C321.333 11.5209 347.849 27.0067 365.684 51.6055C377.504 68.5696 384.448 86.8573 387.062 107.375C387.225 108.604 387.388 109.833 387.556 111.099C390.153 131.289 392.195 151.658 393 172C393.064 173.035 393.129 174.07 393.195 175.137C393.491 182.371 392.298 188.279 387.387 193.82C381.063 199.625 374.578 200.482 366.184 200.301C358.115 199.539 353.892 195.309 348.664 189.414C344.858 183.893 344.608 178.063 344.289 171.582C344.18 169.685 344.071 167.788 343.961 165.89C343.907 164.898 343.852 163.907 343.796 162.885C342.913 147.032 341.818 131.218 340.062 115.438C339.989 114.737 339.915 114.036 339.84 113.314C337.889 94.9163 332.825 78.0644 318 66C305.474 56.9164 291.642 54.9326 276.687 52.875C275.534 52.7162 274.38 52.5574 273.192 52.3938C250.615 49.4974 228.149 48.7088 205.401 48.8627C201.953 48.8837 198.506 48.8924 195.059 48.9024C188.372 48.9241 181.686 48.9572 175 49C175.819 49.3623 175.819 49.3623 176.654 49.732C197.199 58.842 197.199 58.842 206.437 63.9375C207.354 64.4413 208.27 64.9451 209.214 65.4641C216.736 69.6885 223.504 74.3104 230 80C230.79 80.691 231.58 81.3819 232.394 82.0938C260.178 108.174 273.258 148.089 276.012 185.129C276.097 186.272 276.183 187.416 276.271 188.594C277.085 199.723 277.7 210.85 278.125 222C278.167 223.088 278.208 224.175 278.251 225.296C280.381 283.451 279.805 341.88 277 400C280.94 399.436 284.876 398.845 288.812 398.25C289.913 398.093 291.013 397.935 292.146 397.773C303.46 396.038 312.805 392.883 322 386C323.031 385.258 324.062 384.515 325.125 383.75C337.378 372.03 340.778 357.476 342.711 341.199C342.833 340.186 342.954 339.173 343.08 338.129C343.313 336.128 343.532 334.125 343.735 332.121C344.793 322.857 347.476 316.43 354.789 310.477C360.348 306.764 366.348 305.287 373 306C380.404 307.679 386.206 310.718 390.375 317.313C397.639 333.886 389.854 361.817 383.762 377.883C379.188 388.994 372.938 398.989 365 408C364.291 408.84 363.582 409.681 362.851 410.547C343.858 432.539 317.794 442.822 289.687 446.75C288.157 446.972 286.626 447.194 285.096 447.418C281.399 447.956 277.7 448.482 274 449C273.885 449.583 273.77 450.165 273.652 450.766C269.379 472.007 263.444 492.6 245 506C231.313 514.083 217.612 513.328 202.562 509.563C170.119 501.027 139.194 487.433 109 473C108.04 472.543 107.08 472.085 106.091 471.614C95.5518 466.562 85.2736 461.159 75.1874 455.25C74.2983 454.731 73.4091 454.212 72.4931 453.678C42.6287 435.849 17.4765 402.685 8.13272 369.039C-1.7629 327.933 -0.554959 282.717 -0.386618 240.73C-0.374863 237.562 -0.368376 234.394 -0.363013 231.225C-0.302721 200.737 0.0506229 170.369 2.9999 140C3.15667 138.331 3.3134 136.662 3.47012 134.993C7.34276 94.4812 14.9858 57.9376 47.6913 30.5855C66.5176 15.4054 87.2564 8.54324 110.944 5.16921C113.407 4.81682 115.867 4.44217 118.326 4.06448C142.568 0.43404 166.763 -0.354542 191.228 -0.315651Z" fill="white"/>
<path d="M442 164C449.523 170.155 456.351 177.174 463.231 184.027C463.998 184.791 463.998 184.791 464.781 185.569C467.483 188.256 470.181 190.945 472.878 193.637C475.634 196.389 478.4 199.13 481.168 201.87C483.324 204.007 485.473 206.151 487.621 208.297C488.637 209.31 489.655 210.321 490.676 211.328C502.948 223.452 512.173 235.336 512.313 253C512.328 271.155 504.08 282.283 491.722 294.721C490.525 295.916 489.327 297.111 488.129 298.305C486.88 299.558 485.631 300.812 484.383 302.067C481.78 304.679 479.171 307.285 476.558 309.888C473.223 313.211 469.905 316.55 466.59 319.894C464.021 322.482 461.442 325.06 458.861 327.636C457.633 328.863 456.409 330.093 455.188 331.327C453.478 333.052 451.756 334.763 450.03 336.472C449.29 337.227 449.29 337.227 448.535 337.996C442.933 343.483 436.95 346.572 429 346.5C420.539 346.211 415.881 344.27 410.125 338.125C405.42 332.284 404.777 327.312 404.637 319.977C405.649 311.68 409.243 307.041 415.074 301.438C415.758 300.761 416.442 300.084 417.146 299.387C419.315 297.246 421.501 295.123 423.688 293C425.169 291.544 426.648 290.087 428.127 288.629C431.738 285.072 435.365 281.532 439 278C438.401 277.999 437.802 277.999 437.185 277.998C422.577 277.983 407.97 277.941 393.362 277.868C386.298 277.833 379.234 277.808 372.169 277.804C365.348 277.801 358.527 277.772 351.706 277.727C349.108 277.714 346.509 277.709 343.91 277.714C340.262 277.719 336.615 277.693 332.967 277.659C331.366 277.672 331.366 277.672 329.733 277.686C322.564 277.577 316.951 276.124 311 272C304.913 265.592 302.56 259.592 302.75 250.785C303.369 243.89 305.713 239.532 311 235C312.176 233.917 312.176 233.917 313.375 232.813C319.772 228.396 326.762 228.697 334.26 228.681C335.373 228.671 336.485 228.661 337.632 228.651C341.295 228.62 344.958 228.603 348.621 228.586C351.167 228.567 353.713 228.548 356.259 228.527C362.265 228.481 368.271 228.444 374.278 228.411C381.119 228.372 387.961 228.323 394.803 228.273C408.868 228.169 422.934 228.08 437 228C436.173 227.188 435.346 226.377 434.493 225.541C431.407 222.509 428.33 219.467 425.257 216.422C423.929 215.109 422.598 213.798 421.265 212.491C419.341 210.604 417.428 208.707 415.516 206.809C414.924 206.232 414.332 205.656 413.722 205.062C407.705 199.047 403.953 192.973 403.688 184.313C403.795 177.026 406.332 171.511 411.188 166.125C420.013 158.014 432.095 157.98 442 164Z" fill="white"/>
</g>
<defs>
<clipPath id="clip0_339_15">
<rect width="512" height="512" fill="white"/>
</clipPath>
</defs>
</svg>
