<svg width="512" height="512" viewBox="0 0 512 512" fill="none" xmlns="http://www.w3.org/2000/svg">
<g clip-path="url(#clip0_339_13)">
<path d="M482.563 1.56252C488.642 5.31589 493.109 11.1013 495 18C495.448 22.7607 495.41 27.5167 495.388 32.294C495.392 33.7619 495.397 35.2298 495.404 36.6977C495.419 40.7233 495.414 44.7488 495.407 48.7744C495.402 53.1196 495.415 57.4647 495.425 61.8098C495.442 70.321 495.443 78.8321 495.438 87.3434C495.434 94.2653 495.435 101.187 495.44 108.109C495.441 109.095 495.442 110.08 495.443 111.095C495.444 113.098 495.446 115.1 495.447 117.102C495.461 135.882 495.456 154.662 495.444 173.442C495.434 190.604 495.447 207.765 495.471 224.926C495.495 242.56 495.505 260.194 495.498 277.829C495.495 287.724 495.497 297.618 495.515 307.513C495.529 315.941 495.53 324.369 495.513 332.797C495.504 337.092 495.502 341.388 495.517 345.683C495.531 349.625 495.526 353.567 495.507 357.509C495.503 358.925 495.506 360.342 495.517 361.759C495.661 382.736 488.714 399.07 474 414C473.209 414.899 473.209 414.899 472.402 415.816C454.078 436.016 422.919 444.8 396.587 446.121C365.475 447.314 331.191 440.191 307.625 418.563C305.717 416.738 303.859 414.875 302 413C301.188 412.221 300.376 411.443 299.539 410.641C287.735 398.635 281.798 382.687 281.625 366.063C281.801 347.507 288.501 332.736 301 319C301.552 318.367 302.103 317.734 302.672 317.082C320.207 298.114 350.363 287.075 375.626 285.82C400.931 284.876 420.589 288.007 445 297C445.33 235.62 445.66 174.24 446 111C440.06 112.65 434.12 114.3 428 116C423.078 117.277 418.156 118.539 413.224 119.774C411.851 120.119 410.478 120.465 409.105 120.811C405.428 121.737 401.75 122.66 398.072 123.583C394.15 124.568 390.229 125.555 386.308 126.541C379.697 128.204 373.086 129.866 366.474 131.526C357.331 133.822 348.188 136.121 339.046 138.42C324.756 142.015 310.464 145.605 296.172 149.191C287.22 151.437 278.27 153.687 269.321 155.944C264.748 157.097 260.175 158.247 255.602 159.397C253.541 159.916 251.481 160.435 249.422 160.957C246.663 161.655 243.903 162.348 241.143 163.041C240.348 163.243 239.553 163.445 238.734 163.654C235.744 164.4 233.095 165 230 165C230.001 165.582 230.002 166.163 230.003 166.762C230.071 201.259 230.122 235.755 230.153 270.252C230.157 274.397 230.161 278.543 230.165 282.688C230.166 283.513 230.166 284.339 230.167 285.189C230.18 298.537 230.204 311.886 230.232 325.234C230.26 338.939 230.276 352.644 230.282 366.349C230.286 374.8 230.299 383.251 230.324 391.702C230.34 397.504 230.344 403.306 230.341 409.107C230.339 412.45 230.343 415.793 230.358 419.137C230.373 422.772 230.369 426.406 230.361 430.041C230.37 431.084 230.378 432.127 230.387 433.201C230.283 450.455 223.47 465.305 212 478C211.408 478.673 210.817 479.346 210.207 480.039C192.072 499.45 163.311 510.749 137.089 512.219C132.726 512.365 128.365 512.387 124 512.375C123.227 512.374 122.454 512.373 121.658 512.372C109.401 512.327 97.7913 511.622 86 508C85.2079 507.759 84.4158 507.517 83.5996 507.269C67.2978 502.122 52.703 494.537 40 483C39.2962 482.389 38.5924 481.778 37.8672 481.148C26.1121 470.315 17.4895 453.963 16.7618 437.883C16.2343 415.34 23.606 398.818 39.0625 382.5C45.1035 376.591 51.6802 372.177 59 368C60.0893 367.372 61.1786 366.744 62.3008 366.098C75.0271 359.263 89.6621 354.789 104 353C104.826 352.89 105.653 352.781 106.504 352.668C124.066 350.705 141.664 351.901 158.75 356.313C159.481 356.501 160.213 356.689 160.966 356.884C165.694 358.18 170.232 359.821 174.802 361.595C175.965 362.045 177.128 362.495 178.326 362.959C179.208 363.303 180.091 363.646 181 364C180.999 363.417 180.998 362.835 180.997 362.234C180.929 327.688 180.878 293.142 180.847 258.595C180.843 254.446 180.839 250.297 180.835 246.147C180.834 245.321 180.834 244.495 180.833 243.644C180.82 230.274 180.796 216.904 180.769 203.534C180.741 189.812 180.724 176.091 180.718 162.369C180.714 153.904 180.701 145.439 180.676 136.974C180.66 131.167 180.656 125.36 180.66 119.552C180.661 116.203 180.657 112.855 180.642 109.506C180.628 105.87 180.631 102.234 180.639 98.5983C180.631 97.5467 180.622 96.4951 180.613 95.4117C180.667 86.5057 182.226 79.453 188.109 72.6055C193.344 68.1602 198.928 66.1936 205.481 64.6284C206.305 64.4223 207.13 64.2161 207.98 64.0037C210.714 63.3232 213.45 62.6578 216.188 61.9922C218.135 61.5104 220.081 61.0276 222.028 60.5438C226.181 59.5138 230.335 58.4902 234.491 57.4719C241.063 55.8612 247.631 54.2362 254.198 52.6082C256.412 52.0595 258.626 51.5108 260.84 50.9622C261.936 50.6907 263.032 50.4192 264.161 50.1394C267.491 49.3148 270.822 48.4916 274.152 47.6688C291.843 43.2977 309.512 38.8435 327.17 34.3426C333.461 32.7395 339.754 31.1405 346.047 29.543C346.746 29.3654 347.446 29.1878 348.167 29.0048C360.943 25.7627 373.728 22.5584 386.516 19.3633C387.952 19.0043 387.952 19.0043 389.418 18.6381C398.863 16.2785 408.308 13.9216 417.754 11.5685C421.235 10.7013 424.715 9.83333 428.195 8.9652C430.565 8.37438 432.935 7.78492 435.306 7.19553C436.775 6.82938 438.244 6.46295 439.713 6.09621C440.76 5.83493 440.76 5.83493 441.828 5.56838C447.871 4.05062 453.885 2.42739 459.893 0.773913C467.189 -1.04322 475.55 -1.51696 482.563 1.56252Z" fill="white"/>
</g>
<defs>
<clipPath id="clip0_339_13">
<rect width="512" height="512" fill="white"/>
</clipPath>
</defs>
</svg>
