<svg width="512" height="512" viewBox="0 0 512 512" fill="none" xmlns="http://www.w3.org/2000/svg">
<g clip-path="url(#clip0_339_20)">
<path d="M242 113C266.916 133.712 275.368 158.055 279.063 189.438C279.147 190.149 279.231 190.86 279.317 191.593C284.563 236.541 285.42 282.935 281 328C280.932 328.696 280.864 329.391 280.794 330.108C277.414 364.425 273.058 397.175 244.742 420.572C232.505 430.255 218.991 436.615 203 435C185.138 432.213 174.16 420.524 162.388 407.8C156.578 401.547 150.594 395.476 144.563 389.438C143.639 388.51 142.716 387.582 141.765 386.626C137.304 382.175 132.785 377.888 128.004 373.785C123.13 369.443 118.643 364.677 114.066 360.027C109.754 355.673 105.379 351.49 100.725 347.502C98.5564 345.614 96.5457 343.581 94.5001 341.563C90.2962 337.768 85.9597 335.096 80.9376 332.563C80.2892 332.233 79.6408 331.903 78.9727 331.563C68.5399 326.555 58.0461 326.649 46.6556 326.544C32.5529 326.389 19.8406 324.89 8.9649 315.184C0.268332 306.044 -0.612321 296.097 -0.531189 283.938C-0.533891 282.496 -0.537779 281.055 -0.542785 279.613C-0.548647 276.607 -0.540226 273.602 -0.521423 270.597C-0.498635 266.771 -0.511768 262.945 -0.535705 259.119C-0.550254 256.147 -0.545524 253.175 -0.535202 250.203C-0.532559 248.794 -0.535715 247.384 -0.54512 245.975C-0.589501 237.457 0.0798173 230.628 4.00006 223C4.51569 221.969 5.03131 220.938 5.56256 219.875C12.3324 211.89 21.0578 206.579 31.5267 205.706C35.6235 205.552 39.7134 205.474 43.8126 205.438C64.5523 205.199 83.8373 202.47 99.1876 187C100.135 185.997 100.135 185.997 101.102 184.973C103.001 182.999 104.982 181.219 107.063 179.438C109.65 177.214 112.11 174.934 114.5 172.5C116.85 170.107 119.264 167.868 121.813 165.688C125.86 162.203 129.588 158.45 133.313 154.625C135.385 152.601 137.469 150.721 139.667 148.842C144.001 145.063 148.013 141.03 152.016 136.906C153.529 135.365 155.044 133.825 156.559 132.285C158.906 129.895 161.248 127.502 163.581 125.097C186.277 101.73 213.35 89.8092 242 113Z" fill="white"/>
<path d="M431 38.0001C475.176 69.8066 497.63 140.849 506.813 191.188C507.086 192.677 507.086 192.677 507.366 194.196C507.979 197.789 508.509 201.389 509 205C509.125 205.916 509.251 206.832 509.38 207.776C511.577 224.308 512.478 240.606 512.391 257.279C512.375 260.933 512.391 264.586 512.41 268.24C512.432 291.086 510.361 313.666 505.813 336.063C505.59 337.183 505.59 337.183 505.362 338.327C495.217 389.04 472.538 450.395 430.629 483.922C423.832 488.421 416.514 489.081 408.609 487.531C401.035 485.367 396.037 481.28 392.063 474.5C388.836 467.383 388.637 459.677 390.816 452.199C393.309 446.615 396.916 442.983 401.293 438.824C440.92 397.482 458.945 330.918 459.203 274.902C459.21 273.878 459.217 272.854 459.224 271.799C459.242 268.512 459.248 265.225 459.25 261.938C459.251 260.815 459.251 259.691 459.252 258.534C459.236 242.143 458.82 226.183 456 210C455.828 208.952 455.657 207.903 455.48 206.823C451.921 185.329 446.443 164.122 438 144C437.656 143.179 437.313 142.357 436.959 141.511C427.457 119.104 415.543 99.2849 399.047 81.3556C392.091 73.3504 389.561 67.2829 389.66 56.6525C390.313 49.6325 393.22 44.3219 398.375 39.5626C408.201 32.1512 420.402 31.4168 431 38.0001Z" fill="white"/>
<path d="M350.871 99.215C356.42 103.636 360.696 109.415 365 115C365.784 116.007 366.568 117.014 367.375 118.051C405.891 168.895 415.576 238.189 407.609 300.032C404.523 322.256 398.646 343.309 390 364C389.688 364.746 389.377 365.492 389.056 366.26C380.551 386.218 365.583 415.104 345.75 425.625C338.66 428.27 329.53 428.569 322.562 425.438C316.062 421.476 311.21 416.367 309 409C307.42 400.877 307.767 394.211 312.188 387.086C314.371 384.072 316.752 381.279 319.227 378.5C344.892 349.168 355.976 307.322 357 269C357.06 267.32 357.06 267.32 357.121 265.606C357.95 221.397 346.781 172.369 315.688 139.375C310.73 133.893 307.886 127.884 307.562 120.438C308.009 112.509 310.591 106.513 316.031 100.727C326.284 91.7351 339.725 91.9784 350.871 99.215Z" fill="white"/>
</g>
<defs>
<clipPath id="clip0_339_20">
<rect width="512" height="512" fill="white"/>
</clipPath>
</defs>
</svg>
